SplineFontDB: 3.2
FontName: MNTch-Script
FullName: MNTch-Script
FamilyName: MNTch-Script
Weight: Regular
Copyright: Condratiy Lenovin. 2020. All Rights Reserved - SIL Open Font License (OFL)
UComments: "2020-6-21: Created with FontForge (http://fontforge.org)"
Version: 1.0
ItalicAngle: 0
UnderlinePosition: -100
UnderlineWidth: 50
Ascent: 800
Descent: 200
InvalidEm: 0
LayerCount: 2
Layer: 0 0 "+BBcEMAQ0BD0EOAQ5 +BD8EOwQwBD0A" 1
Layer: 1 0 "+BB8ENQRABDUENAQ9BDgEOQAA +BD8EOwQwBD0A" 0
XUID: [1021 976 -503447388 22546]
StyleMap: 0x0000
FSType: 0
OS2Version: 0
OS2_WeightWidthSlopeOnly: 0
OS2_UseTypoMetrics: 1
CreationTime: 1592744593
ModificationTime: 1593575811
OS2TypoAscent: 0
OS2TypoAOffset: 1
OS2TypoDescent: 0
OS2TypoDOffset: 1
OS2TypoLinegap: 90
OS2WinAscent: 0
OS2WinAOffset: 1
OS2WinDescent: 0
OS2WinDOffset: 1
HheadAscent: 0
HheadAOffset: 1
HheadDescent: 0
HheadDOffset: 1
MarkAttachClasses: 1
DEI: 91125
Encoding: ISO8859-1
UnicodeInterp: none
NameList: AGL For New Fonts
DisplaySize: -48
AntiAlias: 1
FitToEm: 0
WinInfo: 0 39 14
BeginPrivate: 0
EndPrivate
BeginChars: 256 35

StartChar: zero
Encoding: 48 48 0
Width: 360
Flags: HW
LayerCount: 2
Fore
SplineSet
244 441 m 1
 244 926 l 1
 268 926 l 1
 292 926 l 1
 292 441 l 1
 292 -44 l 1
 268 -44 l 1
 244 -44 l 1
 244 441 l 1
312 441 m 1
 312 926 l 1
 336 926 l 1
 360 926 l 1
 360 441 l 1
 360 -44 l 1
 336 -44 l 1
 312 -44 l 1
 312 441 l 1
46 -59 m 1
 46 34 l 1
 135 34 l 1
 224 34 l 1
 224 -59 l 1
 224 -151 l 1
 135 -151 l 1
 46 -151 l 1
 46 -59 l 1
189 -59 m 1
 189 -3 l 1
 135 -3 l 1
 82 -3 l 1
 82 -59 l 1
 82 -114 l 1
 135 -114 l 1
 189 -114 l 1
 189 -59 l 1
EndSplineSet
Validated: 1
EndChar

StartChar: one
Encoding: 49 49 1
Width: 360
Flags: HW
LayerCount: 2
Fore
SplineSet
244 441 m 1
 244 926 l 1
 268 926 l 1
 292 926 l 1
 292 441 l 1
 292 -44 l 1
 268 -44 l 1
 244 -44 l 1
 244 441 l 1
312 441 m 1
 312 926 l 1
 336 926 l 1
 360 926 l 1
 360 441 l 1
 360 -44 l 1
 336 -44 l 1
 312 -44 l 1
 312 441 l 1
153 15 m 5
 153 34 l 5
 189 34 l 5
 225 34 l 5
 225 -59 l 5
 225 -151 l 5
 207 -151 l 5
 189 -151 l 5
 189 -77 l 5
 189 -3 l 5
 171 -3 l 5
 153 -3 l 5
 153 15 l 5
EndSplineSet
Validated: 1
EndChar

StartChar: two
Encoding: 50 50 2
Width: 360
Flags: HW
LayerCount: 2
Fore
SplineSet
244 441 m 1
 244 926 l 1
 268 926 l 1
 292 926 l 1
 292 441 l 1
 292 -44 l 1
 268 -44 l 1
 244 -44 l 1
 244 441 l 1
312 441 m 1
 312 926 l 1
 336 926 l 1
 360 926 l 1
 360 441 l 1
 360 -44 l 1
 336 -44 l 1
 312 -44 l 1
 312 441 l 1
47 15 m 5
 47 34 l 5
 136 34 l 5
 225 34 l 5
 225 -22 l 5
 225 -77 l 5
 153 -77 l 5
 82 -77 l 5
 82 -96 l 5
 82 -114 l 5
 153 -114 l 5
 225 -114 l 5
 225 -133 l 5
 225 -151 l 5
 136 -151 l 5
 47 -151 l 5
 47 -96 l 5
 47 -40 l 5
 118 -40 l 5
 189 -40 l 5
 189 -22 l 5
 189 -3 l 5
 118 -3 l 5
 47 -3 l 5
 47 15 l 5
EndSplineSet
Validated: 1
EndChar

StartChar: three
Encoding: 51 51 3
Width: 360
Flags: HW
LayerCount: 2
Fore
SplineSet
244 441 m 1
 244 926 l 1
 268 926 l 1
 292 926 l 1
 292 441 l 1
 292 -44 l 1
 268 -44 l 1
 244 -44 l 1
 244 441 l 1
312 441 m 1
 312 926 l 1
 336 926 l 1
 360 926 l 1
 360 441 l 1
 360 -44 l 1
 336 -44 l 1
 312 -44 l 1
 312 441 l 1
47 15 m 5
 47 34 l 5
 136 34 l 5
 225 34 l 5
 225 -59 l 5
 225 -151 l 5
 136 -151 l 5
 47 -151 l 5
 47 -133 l 5
 47 -114 l 5
 118 -114 l 5
 189 -114 l 5
 189 -96 l 5
 189 -77 l 5
 118 -77 l 5
 47 -77 l 5
 47 -59 l 5
 47 -40 l 5
 118 -40 l 5
 189 -40 l 5
 189 -22 l 5
 189 -3 l 5
 118 -3 l 5
 47 -3 l 5
 47 15 l 5
EndSplineSet
Validated: 1
EndChar

StartChar: four
Encoding: 52 52 4
Width: 360
Flags: HW
LayerCount: 2
Fore
SplineSet
244 441 m 1
 244 926 l 1
 268 926 l 1
 292 926 l 1
 292 441 l 1
 292 -44 l 1
 268 -44 l 1
 244 -44 l 1
 244 441 l 1
312 441 m 1
 312 926 l 1
 336 926 l 1
 360 926 l 1
 360 441 l 1
 360 -44 l 1
 336 -44 l 1
 312 -44 l 1
 312 441 l 1
47 -22 m 5
 47 34 l 5
 65 34 l 5
 82 34 l 5
 82 -3 l 5
 82 -40 l 5
 136 -40 l 5
 189 -40 l 5
 189 -3 l 5
 189 34 l 5
 207 34 l 5
 225 34 l 5
 225 -59 l 5
 225 -151 l 5
 207 -151 l 5
 189 -151 l 5
 189 -114 l 5
 189 -77 l 5
 118 -77 l 5
 47 -77 l 5
 47 -22 l 5
EndSplineSet
Validated: 1
EndChar

StartChar: five
Encoding: 53 53 5
Width: 360
Flags: HW
LayerCount: 2
Fore
SplineSet
244 441 m 1
 244 926 l 1
 268 926 l 1
 292 926 l 1
 292 441 l 1
 292 -44 l 1
 268 -44 l 1
 244 -44 l 1
 244 441 l 1
312 441 m 1
 312 926 l 1
 336 926 l 1
 360 926 l 1
 360 441 l 1
 360 -44 l 1
 336 -44 l 1
 312 -44 l 1
 312 441 l 1
47 -22 m 5
 47 34 l 5
 136 34 l 5
 225 34 l 5
 225 15 l 5
 225 -3 l 5
 153 -3 l 5
 82 -3 l 5
 82 -22 l 5
 82 -40 l 5
 153 -40 l 5
 225 -40 l 5
 225 -96 l 5
 225 -151 l 5
 136 -151 l 5
 47 -151 l 5
 47 -133 l 5
 47 -114 l 5
 118 -114 l 5
 189 -114 l 5
 189 -96 l 5
 189 -77 l 5
 118 -77 l 5
 47 -77 l 5
 47 -22 l 5
EndSplineSet
Validated: 1
EndChar

StartChar: six
Encoding: 54 54 6
Width: 360
Flags: HW
LayerCount: 2
Fore
SplineSet
244 441 m 1
 244 926 l 1
 268 926 l 1
 292 926 l 1
 292 441 l 1
 292 -44 l 1
 268 -44 l 1
 244 -44 l 1
 244 441 l 1
312 441 m 1
 312 926 l 1
 336 926 l 1
 360 926 l 1
 360 441 l 1
 360 -44 l 1
 336 -44 l 1
 312 -44 l 1
 312 441 l 1
47 -59 m 5
 47 34 l 5
 136 34 l 5
 225 34 l 5
 225 15 l 5
 225 -3 l 5
 153 -3 l 5
 82 -3 l 5
 82 -22 l 5
 82 -40 l 5
 153 -40 l 5
 225 -40 l 5
 225 -96 l 5
 225 -151 l 5
 136 -151 l 5
 47 -151 l 5
 47 -59 l 5
189 -96 m 5
 189 -77 l 5
 136 -77 l 5
 82 -77 l 5
 82 -96 l 5
 82 -114 l 5
 136 -114 l 5
 189 -114 l 5
 189 -96 l 5
EndSplineSet
Validated: 1
EndChar

StartChar: seven
Encoding: 55 55 7
Width: 360
Flags: HW
LayerCount: 2
Fore
SplineSet
244 441 m 1
 244 926 l 1
 268 926 l 1
 292 926 l 1
 292 441 l 1
 292 -44 l 1
 268 -44 l 1
 244 -44 l 1
 244 441 l 1
312 441 m 1
 312 926 l 1
 336 926 l 1
 360 926 l 1
 360 441 l 1
 360 -44 l 1
 336 -44 l 1
 312 -44 l 1
 312 441 l 1
47 15 m 5
 47 34 l 5
 136 34 l 5
 225 34 l 5
 225 -59 l 5
 225 -151 l 5
 207 -151 l 5
 189 -151 l 5
 189 -77 l 5
 189 -3 l 5
 118 -3 l 5
 47 -3 l 5
 47 15 l 5
EndSplineSet
Validated: 1
EndChar

StartChar: eight
Encoding: 56 56 8
Width: 360
Flags: HW
LayerCount: 2
Fore
SplineSet
244 441 m 1
 244 926 l 1
 268 926 l 1
 292 926 l 1
 292 441 l 1
 292 -44 l 1
 268 -44 l 1
 244 -44 l 1
 244 441 l 1
312 441 m 1
 312 926 l 1
 336 926 l 1
 360 926 l 1
 360 441 l 1
 360 -44 l 1
 336 -44 l 1
 312 -44 l 1
 312 441 l 1
47 -59 m 5
 47 34 l 5
 136 34 l 5
 225 34 l 5
 225 -59 l 5
 225 -151 l 5
 136 -151 l 5
 47 -151 l 5
 47 -59 l 5
189 -22 m 5
 189 -3 l 5
 136 -3 l 5
 82 -3 l 5
 82 -22 l 5
 82 -40 l 5
 136 -40 l 5
 189 -40 l 5
 189 -22 l 5
189 -96 m 5
 189 -77 l 5
 136 -77 l 5
 82 -77 l 5
 82 -96 l 5
 82 -114 l 5
 136 -114 l 5
 189 -114 l 5
 189 -96 l 5
EndSplineSet
Validated: 1
EndChar

StartChar: nine
Encoding: 57 57 9
Width: 360
Flags: HW
LayerCount: 2
Fore
SplineSet
244 441 m 1
 244 926 l 1
 268 926 l 1
 292 926 l 1
 292 441 l 1
 292 -44 l 1
 268 -44 l 1
 244 -44 l 1
 244 441 l 1
312 441 m 1
 312 926 l 1
 336 926 l 1
 360 926 l 1
 360 441 l 1
 360 -44 l 1
 336 -44 l 1
 312 -44 l 1
 312 441 l 1
47 -22 m 5
 47 34 l 5
 136 34 l 5
 225 34 l 5
 225 -59 l 5
 225 -151 l 5
 136 -151 l 5
 47 -151 l 5
 47 -133 l 5
 47 -114 l 5
 118 -114 l 5
 189 -114 l 5
 189 -96 l 5
 189 -77 l 5
 118 -77 l 5
 47 -77 l 5
 47 -22 l 5
189 -22 m 5
 189 -3 l 5
 136 -3 l 5
 82 -3 l 5
 82 -22 l 5
 82 -40 l 5
 136 -40 l 5
 189 -40 l 5
 189 -22 l 5
EndSplineSet
Validated: 1
EndChar

StartChar: a
Encoding: 97 97 10
Width: 225
Flags: HW
LayerCount: 2
Fore
SplineSet
30.8359375 490.25 m 5
 30.8359375 926.296875 l 5
 79.3203125 926.296875 l 5
 127.8046875 926.296875 l 5
 127.8046875 490.25 l 5
 127.8046875 54.203125 l 5
 79.3203125 54.203125 l 5
 30.8359375 54.203125 l 5
 30.8359375 490.25 l 5
176.290039062 490.25 m 5
 176.290039062 926.296875 l 5
 200.53515625 926.296875 l 5
 224.774414062 926.296875 l 5
 224.774414062 490.25 l 5
 224.774414062 54.203125 l 5
 200.53515625 54.203125 l 5
 176.290039062 54.203125 l 5
 176.290039062 490.25 l 5
47 -58.59765625 m 5
 47 34 l 5
 135.88671875 34 l 5
 224.774414062 34 l 5
 224.774414062 -58.59765625 l 5
 224.774414062 -151.194335938 l 5
 135.88671875 -151.194335938 l 5
 47 -151.194335938 l 5
 47 -58.59765625 l 5
189.216796875 -58.59765625 m 5
 189.216796875 -3.0419921875 l 5
 135.88671875 -3.0419921875 l 5
 82.5576171875 -3.0419921875 l 5
 82.5576171875 -58.59765625 l 5
 82.5576171875 -114.16015625 l 5
 135.88671875 -114.16015625 l 5
 189.216796875 -114.16015625 l 5
 189.216796875 -58.59765625 l 5
EndSplineSet
Validated: 1
EndChar

StartChar: b
Encoding: 98 98 11
Width: 225
Flags: HW
LayerCount: 2
Fore
SplineSet
31 490 m 1
 31 926 l 1
 71 926 l 1
 112 926 l 1
 112 490 l 1
 112 54 l 1
 71 54 l 1
 31 54 l 1
 31 490 l 1
144 490 m 1
 144 926 l 1
 185 926 l 1
 225 926 l 1
 225 490 l 1
 225 54 l 1
 185 54 l 1
 144 54 l 1
 144 490 l 1
154 15 m 1
 154 34 l 1
 189 34 l 1
 225 34 l 1
 225 -59 l 1
 225 -151 l 1
 207 -151 l 1
 189 -151 l 1
 189 -77 l 1
 189 -3 l 1
 172 -3 l 1
 154 -3 l 1
 154 15 l 1
EndSplineSet
Validated: 1
EndChar

StartChar: c
Encoding: 99 99 12
Width: 225
Flags: HW
LayerCount: 2
Fore
SplineSet
31 490 m 1
 31 926 l 1
 63 926 l 1
 96 926 l 1
 96 490 l 1
 96 54 l 1
 63 54 l 1
 31 54 l 1
 31 490 l 1
125 490 m 1
 125 926 l 1
 157 926 l 1
 189 926 l 1
 189 490 l 1
 189 54 l 1
 157 54 l 1
 125 54 l 1
 125 490 l 1
47 15 m 1
 47 34 l 1
 136 34 l 1
 225 34 l 1
 225 -22 l 1
 225 -77 l 1
 154 -77 l 1
 83 -77 l 1
 83 -96 l 1
 83 -114 l 1
 154 -114 l 1
 225 -114 l 1
 225 -133 l 1
 225 -151 l 1
 136 -151 l 1
 47 -151 l 1
 47 -96 l 1
 47 -40 l 1
 118 -40 l 1
 189 -40 l 1
 189 -22 l 1
 189 -3 l 1
 118 -3 l 1
 47 -3 l 1
 47 15 l 1
EndSplineSet
Validated: 1
EndChar

StartChar: d
Encoding: 100 100 13
Width: 225
Flags: HW
LayerCount: 2
Fore
SplineSet
31 490 m 1
 31 926 l 1
 55 926 l 1
 79 926 l 1
 79 490 l 1
 79 54 l 1
 55 54 l 1
 31 54 l 1
 31 490 l 1
176 490 m 1
 176 926 l 1
 201 926 l 1
 225 926 l 1
 225 490 l 1
 225 54 l 1
 201 54 l 1
 176 54 l 1
 176 490 l 1
47 15 m 1
 47 34 l 1
 136 34 l 1
 225 34 l 1
 225 -59 l 1
 225 -151 l 1
 136 -151 l 1
 47 -151 l 1
 47 -133 l 1
 47 -114 l 1
 118 -114 l 1
 189 -114 l 1
 189 -96 l 1
 189 -77 l 1
 118 -77 l 1
 47 -77 l 1
 47 -59 l 1
 47 -40 l 1
 118 -40 l 1
 189 -40 l 1
 189 -22 l 1
 189 -3 l 1
 118 -3 l 1
 47 -3 l 1
 47 15 l 1
EndSplineSet
Validated: 1
EndChar

StartChar: e
Encoding: 101 101 14
Width: 225
Flags: HW
LayerCount: 2
Fore
SplineSet
31 490 m 1
 31 926 l 1
 55 926 l 1
 79 926 l 1
 79 490 l 1
 79 54 l 1
 55 54 l 1
 31 54 l 1
 31 490 l 1
112 490 m 1
 112 926 l 1
 157 926 l 1
 202 926 l 1
 202 490 l 1
 202 54 l 1
 157 54 l 1
 112 54 l 1
 112 490 l 1
47 -22 m 1
 47 34 l 1
 65 34 l 1
 83 34 l 1
 83 -3 l 1
 83 -40 l 1
 136 -40 l 1
 189 -40 l 1
 189 -3 l 1
 189 34 l 1
 207 34 l 1
 225 34 l 1
 225 -59 l 1
 225 -151 l 1
 207 -151 l 1
 189 -151 l 1
 189 -114 l 1
 189 -77 l 1
 118 -77 l 1
 47 -77 l 1
 47 -22 l 1
EndSplineSet
Validated: 1
EndChar

StartChar: f
Encoding: 102 102 15
Width: 225
Flags: HW
LayerCount: 2
Fore
SplineSet
31 490 m 1
 31 926 l 1
 55 926 l 1
 79 926 l 1
 79 490 l 1
 79 54 l 1
 55 54 l 1
 31 54 l 1
 31 490 l 1
134 490 m 1
 134 926 l 1
 180 926 l 1
 225 926 l 1
 225 490 l 1
 225 54 l 1
 180 54 l 1
 134 54 l 1
 134 490 l 1
47 -22 m 1
 47 34 l 1
 136 34 l 1
 225 34 l 1
 225 15 l 1
 225 -3 l 1
 154 -3 l 1
 83 -3 l 1
 83 -22 l 1
 83 -40 l 1
 154 -40 l 1
 225 -40 l 1
 225 -96 l 1
 225 -151 l 1
 136 -151 l 1
 47 -151 l 1
 47 -133 l 1
 47 -114 l 1
 118 -114 l 1
 189 -114 l 1
 189 -96 l 1
 189 -77 l 1
 118 -77 l 1
 47 -77 l 1
 47 -22 l 1
EndSplineSet
Validated: 1
EndChar

StartChar: g
Encoding: 103 103 16
Width: 225
Flags: HW
LayerCount: 2
Fore
SplineSet
31 490 m 1
 31 926 l 1
 55 926 l 1
 79 926 l 1
 79 490 l 1
 79 54 l 1
 55 54 l 1
 31 54 l 1
 31 490 l 1
99 490 m 1
 99 926 l 1
 123 926 l 1
 147 926 l 1
 147 490 l 1
 147 54 l 1
 123 54 l 1
 99 54 l 1
 99 490 l 1
47 -59 m 1
 47 34 l 1
 136 34 l 1
 225 34 l 1
 225 15 l 1
 225 -3 l 1
 154 -3 l 1
 83 -3 l 1
 83 -22 l 1
 83 -40 l 1
 154 -40 l 1
 225 -40 l 1
 225 -96 l 1
 225 -151 l 1
 136 -151 l 1
 47 -151 l 1
 47 -59 l 1
189 -96 m 1
 189 -77 l 1
 136 -77 l 1
 83 -77 l 1
 83 -96 l 1
 83 -114 l 1
 136 -114 l 1
 189 -114 l 1
 189 -96 l 1
EndSplineSet
Validated: 1
EndChar

StartChar: h
Encoding: 104 104 17
Width: 225
Flags: HW
LayerCount: 2
Fore
SplineSet
31 490 m 1
 31 926 l 1
 55 926 l 1
 79 926 l 1
 79 490 l 1
 79 54 l 1
 55 54 l 1
 31 54 l 1
 31 490 l 1
141 490 m 1
 141 926 l 1
 165 926 l 1
 189 926 l 1
 189 490 l 1
 189 54 l 1
 165 54 l 1
 141 54 l 1
 141 490 l 1
47 15 m 1
 47 34 l 1
 136 34 l 1
 225 34 l 1
 225 -59 l 1
 225 -151 l 1
 207 -151 l 1
 189 -151 l 1
 189 -77 l 1
 189 -3 l 1
 118 -3 l 1
 47 -3 l 1
 47 15 l 1
EndSplineSet
Validated: 1
EndChar

StartChar: i
Encoding: 105 105 18
Width: 225
Flags: HW
LayerCount: 2
Fore
SplineSet
31 490 m 1
 31 926 l 1
 55 926 l 1
 79 926 l 1
 79 490 l 1
 79 54 l 1
 55 54 l 1
 31 54 l 1
 31 490 l 1
115 490 m 1
 115 926 l 1
 139 926 l 1
 163 926 l 1
 163 490 l 1
 163 54 l 1
 139 54 l 1
 115 54 l 1
 115 490 l 1
47 -59 m 1
 47 34 l 1
 136 34 l 1
 225 34 l 1
 225 -59 l 1
 225 -151 l 1
 136 -151 l 1
 47 -151 l 1
 47 -59 l 1
189 -22 m 1
 189 -3 l 1
 136 -3 l 1
 83 -3 l 1
 83 -22 l 1
 83 -40 l 1
 136 -40 l 1
 189 -40 l 1
 189 -22 l 1
189 -96 m 1
 189 -77 l 1
 136 -77 l 1
 83 -77 l 1
 83 -96 l 1
 83 -114 l 1
 136 -114 l 1
 189 -114 l 1
 189 -96 l 1
EndSplineSet
Validated: 1
EndChar

StartChar: j
Encoding: 106 106 19
Width: 225
Flags: HW
LayerCount: 2
Fore
SplineSet
31 490 m 1
 31 926 l 1
 79 926 l 1
 128 926 l 1
 128 490 l 1
 128 54 l 1
 79 54 l 1
 31 54 l 1
 31 490 l 1
141 490 m 1
 141 926 l 1
 165 926 l 1
 189 926 l 1
 189 490 l 1
 189 54 l 1
 165 54 l 1
 141 54 l 1
 141 490 l 1
47 -22 m 1
 47 34 l 1
 136 34 l 1
 225 34 l 1
 225 -59 l 1
 225 -151 l 1
 136 -151 l 1
 47 -151 l 1
 47 -133 l 1
 47 -114 l 1
 118 -114 l 1
 189 -114 l 1
 189 -96 l 1
 189 -77 l 1
 118 -77 l 1
 47 -77 l 1
 47 -22 l 1
189 -22 m 1
 189 -3 l 1
 136 -3 l 1
 83 -3 l 1
 83 -22 l 1
 83 -40 l 1
 136 -40 l 1
 189 -40 l 1
 189 -22 l 1
EndSplineSet
Validated: 1
EndChar

StartChar: mu
Encoding: 181 181 20
Width: 1000
Flags: HW
LayerCount: 2
Fore
SplineSet
-4625.47460938 457.126953125 m 1
 -4625.47460938 942 l 1
 -4601.23632812 942 l 1
 -4576.99023438 942 l 1
 -4576.99023438 457.126953125 l 1
 -4576.99023438 -27.7451171875 l 1
 -4601.23632812 -27.7451171875 l 1
 -4625.47460938 -27.7451171875 l 1
 -4625.47460938 457.126953125 l 1
-4557.59667969 457.126953125 m 1
 -4557.59667969 942 l 1
 -4533.35742188 942 l 1
 -4509.11230469 942 l 1
 -4509.11230469 457.126953125 l 1
 -4509.11230469 -27.7451171875 l 1
 -4533.35742188 -27.7451171875 l 1
 -4557.59667969 -27.7451171875 l 1
 -4557.59667969 457.126953125 l 1
-4292.55761719 457.126953125 m 1
 -4292.55761719 942 l 1
 -4268.31152344 942 l 1
 -4244.07226562 942 l 1
 -4244.07226562 457.126953125 l 1
 -4244.07226562 -27.7451171875 l 1
 -4268.31152344 -27.7451171875 l 1
 -4292.55761719 -27.7451171875 l 1
 -4292.55761719 457.126953125 l 1
-4224.67871094 457.126953125 m 1
 -4224.67871094 942 l 1
 -4200.43359375 942 l 1
 -4176.19433594 942 l 1
 -4176.19433594 457.126953125 l 1
 -4176.19433594 -27.7451171875 l 1
 -4200.43359375 -27.7451171875 l 1
 -4224.67871094 -27.7451171875 l 1
 -4224.67871094 457.126953125 l 1
-3959.6328125 457.126953125 m 1
 -3959.6328125 942 l 1
 -3935.39355469 942 l 1
 -3911.1484375 942 l 1
 -3911.1484375 457.126953125 l 1
 -3911.1484375 -27.7451171875 l 1
 -3935.39355469 -27.7451171875 l 1
 -3959.6328125 -27.7451171875 l 1
 -3959.6328125 457.126953125 l 1
-3891.75390625 457.126953125 m 1
 -3891.75390625 942 l 1
 -3867.515625 942 l 1
 -3843.27636719 942 l 1
 -3843.27636719 457.126953125 l 1
 -3843.27636719 -27.7451171875 l 1
 -3867.515625 -27.7451171875 l 1
 -3891.75390625 -27.7451171875 l 1
 -3891.75390625 457.126953125 l 1
-3626.71484375 457.126953125 m 1
 -3626.71484375 942 l 1
 -3602.46875 942 l 1
 -3578.23046875 942 l 1
 -3578.23046875 457.126953125 l 1
 -3578.23046875 -27.7451171875 l 1
 -3602.46875 -27.7451171875 l 1
 -3626.71484375 -27.7451171875 l 1
 -3626.71484375 457.126953125 l 1
-3558.8359375 457.126953125 m 1
 -3558.8359375 942 l 1
 -3534.59765625 942 l 1
 -3510.3515625 942 l 1
 -3510.3515625 457.126953125 l 1
 -3510.3515625 -27.7451171875 l 1
 -3534.59765625 -27.7451171875 l 1
 -3558.8359375 -27.7451171875 l 1
 -3558.8359375 457.126953125 l 1
-3293.79003906 457.126953125 m 1
 -3293.79003906 942 l 1
 -3269.55078125 942 l 1
 -3245.3125 942 l 1
 -3245.3125 457.126953125 l 1
 -3245.3125 -27.7451171875 l 1
 -3269.55078125 -27.7451171875 l 1
 -3293.79003906 -27.7451171875 l 1
 -3293.79003906 457.126953125 l 1
-3225.91894531 457.126953125 m 1
 -3225.91894531 942 l 1
 -3201.67285156 942 l 1
 -3177.43359375 942 l 1
 -3177.43359375 457.126953125 l 1
 -3177.43359375 -27.7451171875 l 1
 -3201.67285156 -27.7451171875 l 1
 -3225.91894531 -27.7451171875 l 1
 -3225.91894531 457.126953125 l 1
-2960.87207031 457.126953125 m 1
 -2960.87207031 942 l 1
 -2936.63378906 942 l 1
 -2912.38769531 942 l 1
 -2912.38769531 457.126953125 l 1
 -2912.38769531 -27.7451171875 l 1
 -2936.63378906 -27.7451171875 l 1
 -2960.87207031 -27.7451171875 l 1
 -2960.87207031 457.126953125 l 1
-2892.99414062 457.126953125 m 1
 -2892.99414062 942 l 1
 -2868.75488281 942 l 1
 -2844.50976562 942 l 1
 -2844.50976562 457.126953125 l 1
 -2844.50976562 -27.7451171875 l 1
 -2868.75488281 -27.7451171875 l 1
 -2892.99414062 -27.7451171875 l 1
 -2892.99414062 457.126953125 l 1
-2627.94726562 457.126953125 m 1
 -2627.94726562 942 l 1
 -2603.70898438 942 l 1
 -2579.46972656 942 l 1
 -2579.46972656 457.126953125 l 1
 -2579.46972656 -27.7451171875 l 1
 -2603.70898438 -27.7451171875 l 1
 -2627.94726562 -27.7451171875 l 1
 -2627.94726562 457.126953125 l 1
-2560.07617188 457.126953125 m 1
 -2560.07617188 942 l 1
 -2535.83007812 942 l 1
 -2511.59179688 942 l 1
 -2511.59179688 457.126953125 l 1
 -2511.59179688 -27.7451171875 l 1
 -2535.83007812 -27.7451171875 l 1
 -2560.07617188 -27.7451171875 l 1
 -2560.07617188 457.126953125 l 1
-2295.02929688 457.126953125 m 1
 -2295.02929688 942 l 1
 -2270.79101562 942 l 1
 -2246.54492188 942 l 1
 -2246.54492188 457.126953125 l 1
 -2246.54492188 -27.7451171875 l 1
 -2270.79101562 -27.7451171875 l 1
 -2295.02929688 -27.7451171875 l 1
 -2295.02929688 457.126953125 l 1
-2227.15136719 457.126953125 m 1
 -2227.15136719 942 l 1
 -2202.91210938 942 l 1
 -2178.66699219 942 l 1
 -2178.66699219 457.126953125 l 1
 -2178.66699219 -27.7451171875 l 1
 -2202.91210938 -27.7451171875 l 1
 -2227.15136719 -27.7451171875 l 1
 -2227.15136719 457.126953125 l 1
-1962.11132812 457.126953125 m 1
 -1962.11132812 942 l 1
 -1937.86621094 942 l 1
 -1913.62695312 942 l 1
 -1913.62695312 457.126953125 l 1
 -1913.62695312 -27.7451171875 l 1
 -1937.86621094 -27.7451171875 l 1
 -1962.11132812 -27.7451171875 l 1
 -1962.11132812 457.126953125 l 1
-1894.23339844 457.126953125 m 1
 -1894.23339844 942 l 1
 -1869.98828125 942 l 1
 -1845.74902344 942 l 1
 -1845.74902344 457.126953125 l 1
 -1845.74902344 -27.7451171875 l 1
 -1869.98828125 -27.7451171875 l 1
 -1894.23339844 -27.7451171875 l 1
 -1894.23339844 457.126953125 l 1
-1629.1875 457.126953125 m 1
 -1629.1875 942 l 1
 -1604.94824219 942 l 1
 -1580.70214844 942 l 1
 -1580.70214844 457.126953125 l 1
 -1580.70214844 -27.7451171875 l 1
 -1604.94824219 -27.7451171875 l 1
 -1629.1875 -27.7451171875 l 1
 -1629.1875 457.126953125 l 1
-1561.30859375 457.126953125 m 1
 -1561.30859375 942 l 1
 -1537.0703125 942 l 1
 -1512.82421875 942 l 1
 -1512.82421875 457.126953125 l 1
 -1512.82421875 -27.7451171875 l 1
 -1537.0703125 -27.7451171875 l 1
 -1561.30859375 -27.7451171875 l 1
 -1561.30859375 457.126953125 l 1
-1493.4375 505.953125 m 1
 -1493.4375 942 l 1
 -1444.953125 942 l 1
 -1396.46875 942 l 1
 -1396.46875 505.953125 l 1
 -1396.46875 69.90625 l 1
 -1444.953125 69.90625 l 1
 -1493.4375 69.90625 l 1
 -1493.4375 505.953125 l 1
-1347.98339844 505.953125 m 1
 -1347.98339844 942 l 1
 -1323.73828125 942 l 1
 -1299.49902344 942 l 1
 -1299.49902344 505.953125 l 1
 -1299.49902344 69.90625 l 1
 -1323.73828125 69.90625 l 1
 -1347.98339844 69.90625 l 1
 -1347.98339844 505.953125 l 1
-1280.10546875 505.953125 m 1
 -1280.10546875 942 l 1
 -1239.703125 942 l 1
 -1199.29980469 942 l 1
 -1199.29980469 505.953125 l 1
 -1199.29980469 69.90625 l 1
 -1239.703125 69.90625 l 1
 -1280.10546875 69.90625 l 1
 -1280.10546875 505.953125 l 1
-1166.97949219 505.953125 m 1
 -1166.97949219 942 l 1
 -1126.57714844 942 l 1
 -1086.17382812 942 l 1
 -1086.17382812 505.953125 l 1
 -1086.17382812 69.90625 l 1
 -1126.57714844 69.90625 l 1
 -1166.97949219 69.90625 l 1
 -1166.97949219 505.953125 l 1
-1066.78027344 505.953125 m 1
 -1066.78027344 942 l 1
 -1034.453125 942 l 1
 -1002.13183594 942 l 1
 -1002.13183594 505.953125 l 1
 -1002.13183594 69.90625 l 1
 -1034.453125 69.90625 l 1
 -1066.78027344 69.90625 l 1
 -1066.78027344 505.953125 l 1
-973.041015625 505.953125 m 1
 -973.041015625 942 l 1
 -940.720703125 942 l 1
 -908.400390625 942 l 1
 -908.400390625 505.953125 l 1
 -908.400390625 69.90625 l 1
 -940.720703125 69.90625 l 1
 -973.041015625 69.90625 l 1
 -973.041015625 505.953125 l 1
-853.448242188 505.953125 m 1
 -853.448242188 942 l 1
 -829.209960938 942 l 1
 -804.963867188 942 l 1
 -804.963867188 505.953125 l 1
 -804.963867188 69.90625 l 1
 -829.209960938 69.90625 l 1
 -853.448242188 69.90625 l 1
 -853.448242188 505.953125 l 1
-708.001953125 505.953125 m 1
 -708.001953125 942 l 1
 -683.755859375 942 l 1
 -659.517578125 942 l 1
 -659.517578125 505.953125 l 1
 -659.517578125 69.90625 l 1
 -683.755859375 69.90625 l 1
 -708.001953125 69.90625 l 1
 -708.001953125 505.953125 l 1
-640.124023438 505.953125 m 1
 -640.124023438 942 l 1
 -615.877929688 942 l 1
 -591.638671875 942 l 1
 -591.638671875 505.953125 l 1
 -591.638671875 69.90625 l 1
 -615.877929688 69.90625 l 1
 -640.124023438 69.90625 l 1
 -640.124023438 505.953125 l 1
-559.318359375 505.953125 m 1
 -559.318359375 942 l 1
 -514.063476562 942 l 1
 -468.81640625 942 l 1
 -468.81640625 505.953125 l 1
 -468.81640625 69.90625 l 1
 -514.063476562 69.90625 l 1
 -559.318359375 69.90625 l 1
 -559.318359375 505.953125 l 1
-426.791992188 505.953125 m 1
 -426.791992188 942 l 1
 -402.552734375 942 l 1
 -378.307617188 942 l 1
 -378.307617188 505.953125 l 1
 -378.307617188 69.90625 l 1
 -402.552734375 69.90625 l 1
 -426.791992188 69.90625 l 1
 -426.791992188 505.953125 l 1
-323.362304688 505.953125 m 1
 -323.362304688 942 l 1
 -278.108398438 942 l 1
 -232.860351562 942 l 1
 -232.860351562 505.953125 l 1
 -232.860351562 69.90625 l 1
 -278.108398438 69.90625 l 1
 -323.362304688 69.90625 l 1
 -323.362304688 505.953125 l 1
-213.466796875 505.953125 m 1
 -213.466796875 942 l 1
 -189.220703125 942 l 1
 -164.982421875 942 l 1
 -164.982421875 505.953125 l 1
 -164.982421875 69.90625 l 1
 -189.220703125 69.90625 l 1
 -213.466796875 69.90625 l 1
 -213.466796875 505.953125 l 1
-145.588867188 505.953125 m 1
 -145.588867188 942 l 1
 -121.349609375 942 l 1
 -97.103515625 942 l 1
 -97.103515625 505.953125 l 1
 -97.103515625 69.90625 l 1
 -121.349609375 69.90625 l 1
 -145.588867188 69.90625 l 1
 -145.588867188 505.953125 l 1
-0.134765625 505.953125 m 1
 -0.134765625 942 l 1
 24.103515625 942 l 1
 48.3427734375 942 l 1
 48.3427734375 505.953125 l 1
 48.3427734375 69.90625 l 1
 24.103515625 69.90625 l 1
 -0.134765625 69.90625 l 1
 -0.134765625 505.953125 l 1
109.760742188 505.953125 m 1
 109.760742188 942 l 1
 134 942 l 1
 158.23828125 942 l 1
 158.23828125 505.953125 l 1
 158.23828125 69.90625 l 1
 134 69.90625 l 1
 109.760742188 69.90625 l 1
 109.760742188 505.953125 l 1
213.190429688 505.953125 m 1
 213.190429688 942 l 1
 237.428710938 942 l 1
 261.674804688 942 l 1
 261.674804688 505.953125 l 1
 261.674804688 69.90625 l 1
 237.428710938 69.90625 l 1
 213.190429688 69.90625 l 1
 213.190429688 505.953125 l 1
297.225585938 505.953125 m 1
 297.225585938 942 l 1
 321.470703125 942 l 1
 345.709960938 942 l 1
 345.709960938 505.953125 l 1
 345.709960938 69.90625 l 1
 321.470703125 69.90625 l 1
 297.225585938 69.90625 l 1
 297.225585938 505.953125 l 1
426.514648438 505.953125 m 1
 426.514648438 942 l 1
 475 942 l 1
 523.484375 942 l 1
 523.484375 505.953125 l 1
 523.484375 69.90625 l 1
 475 69.90625 l 1
 426.514648438 69.90625 l 1
 426.514648438 505.953125 l 1
536.411132812 505.953125 m 1
 536.411132812 942 l 1
 560.65625 942 l 1
 584.895507812 942 l 1
 584.895507812 505.953125 l 1
 584.895507812 69.90625 l 1
 560.65625 69.90625 l 1
 536.411132812 69.90625 l 1
 536.411132812 505.953125 l 1
639.846679688 457.126953125 m 1
 639.846679688 942 l 1
 664.0859375 942 l 1
 688.331054688 942 l 1
 688.331054688 457.126953125 l 1
 688.331054688 -27.7451171875 l 1
 664.0859375 -27.7451171875 l 1
 639.846679688 -27.7451171875 l 1
 639.846679688 457.126953125 l 1
707.725585938 457.126953125 m 1
 707.725585938 942 l 1
 731.963867188 942 l 1
 756.203125 942 l 1
 756.203125 457.126953125 l 1
 756.203125 -27.7451171875 l 1
 731.963867188 -27.7451171875 l 1
 707.725585938 -27.7451171875 l 1
 707.725585938 457.126953125 l 1
775.596679688 457.126953125 m 5
 775.596679688 942 l 5
 796.612304688 942 l 5
 817.62109375 942 l 5
 817.62109375 457.126953125 l 5
 817.62109375 -27.7451171875 l 5
 796.612304688 -27.7451171875 l 5
 775.596679688 -27.7451171875 l 5
 775.596679688 457.126953125 l 5
837.014648438 457.126953125 m 5
 837.014648438 942 l 5
 858.0234375 942 l 5
 879.032226562 942 l 5
 879.032226562 457.126953125 l 5
 879.032226562 -27.7451171875 l 5
 858.0234375 -27.7451171875 l 5
 837.014648438 -27.7451171875 l 5
 837.014648438 457.126953125 l 5
-4822.64355469 -42.89453125 m 1
 -4822.64355469 49.703125 l 1
 -4733.75585938 49.703125 l 1
 -4644.86914062 49.703125 l 1
 -4644.86914062 -42.89453125 l 1
 -4644.86914062 -135.491210938 l 1
 -4733.75585938 -135.491210938 l 1
 -4822.64355469 -135.491210938 l 1
 -4822.64355469 -42.89453125 l 1
-4680.42675781 -42.89453125 m 1
 -4680.42675781 12.6611328125 l 1
 -4733.75585938 12.6611328125 l 1
 -4787.0859375 12.6611328125 l 1
 -4787.0859375 -42.89453125 l 1
 -4787.0859375 -98.45703125 l 1
 -4733.75585938 -98.45703125 l 1
 -4680.42675781 -98.45703125 l 1
 -4680.42675781 -42.89453125 l 1
-4383.05957031 31.1826171875 m 1
 -4383.05957031 49.703125 l 1
 -4347.50195312 49.703125 l 1
 -4311.95117188 49.703125 l 1
 -4311.95117188 -42.89453125 l 1
 -4311.95117188 -135.491210938 l 1
 -4329.72265625 -135.491210938 l 1
 -4347.50195312 -135.491210938 l 1
 -4347.50195312 -61.4150390625 l 1
 -4347.50195312 12.6611328125 l 1
 -4365.28027344 12.6611328125 l 1
 -4383.05957031 12.6611328125 l 1
 -4383.05957031 31.1826171875 l 1
-4156.80078125 31.1826171875 m 1
 -4156.80078125 49.703125 l 1
 -4067.91308594 49.703125 l 1
 -3979.02636719 49.703125 l 1
 -3979.02636719 -5.859375 l 1
 -3979.02636719 -61.4150390625 l 1
 -4050.13476562 -61.4150390625 l 1
 -4121.25 -61.4150390625 l 1
 -4121.25 -79.935546875 l 1
 -4121.25 -98.45703125 l 1
 -4050.13476562 -98.45703125 l 1
 -3979.02636719 -98.45703125 l 1
 -3979.02636719 -116.970703125 l 1
 -3979.02636719 -135.491210938 l 1
 -4067.91308594 -135.491210938 l 1
 -4156.80078125 -135.491210938 l 1
 -4156.80078125 -79.935546875 l 1
 -4156.80078125 -24.373046875 l 1
 -4085.69238281 -24.373046875 l 1
 -4014.58398438 -24.373046875 l 1
 -4014.58398438 -5.859375 l 1
 -4014.58398438 12.6611328125 l 1
 -4085.69238281 12.6611328125 l 1
 -4156.80078125 12.6611328125 l 1
 -4156.80078125 31.1826171875 l 1
-3823.8828125 31.1826171875 m 1
 -3823.8828125 49.703125 l 1
 -3734.99609375 49.703125 l 1
 -3646.10839844 49.703125 l 1
 -3646.10839844 -42.89453125 l 1
 -3646.10839844 -135.491210938 l 1
 -3734.99609375 -135.491210938 l 1
 -3823.8828125 -135.491210938 l 1
 -3823.8828125 -116.970703125 l 1
 -3823.8828125 -98.45703125 l 1
 -3752.77441406 -98.45703125 l 1
 -3681.65917969 -98.45703125 l 1
 -3681.65917969 -79.935546875 l 1
 -3681.65917969 -61.4150390625 l 1
 -3752.77441406 -61.4150390625 l 1
 -3823.8828125 -61.4150390625 l 1
 -3823.8828125 -42.89453125 l 1
 -3823.8828125 -24.373046875 l 1
 -3752.77441406 -24.373046875 l 1
 -3681.65917969 -24.373046875 l 1
 -3681.65917969 -5.859375 l 1
 -3681.65917969 12.6611328125 l 1
 -3752.77441406 12.6611328125 l 1
 -3823.8828125 12.6611328125 l 1
 -3823.8828125 31.1826171875 l 1
-3490.95800781 -5.859375 m 1
 -3490.95800781 49.703125 l 1
 -3473.1796875 49.703125 l 1
 -3455.40722656 49.703125 l 1
 -3455.40722656 12.6611328125 l 1
 -3455.40722656 -24.373046875 l 1
 -3402.07128906 -24.373046875 l 1
 -3348.74121094 -24.373046875 l 1
 -3348.74121094 12.6611328125 l 1
 -3348.74121094 49.703125 l 1
 -3330.96289062 49.703125 l 1
 -3313.18359375 49.703125 l 1
 -3313.18359375 -42.89453125 l 1
 -3313.18359375 -135.491210938 l 1
 -3330.96289062 -135.491210938 l 1
 -3348.74121094 -135.491210938 l 1
 -3348.74121094 -98.45703125 l 1
 -3348.74121094 -61.4150390625 l 1
 -3419.84960938 -61.4150390625 l 1
 -3490.95800781 -61.4150390625 l 1
 -3490.95800781 -5.859375 l 1
-3158.04003906 -5.859375 m 1
 -3158.04003906 49.703125 l 1
 -3069.15332031 49.703125 l 1
 -2980.265625 49.703125 l 1
 -2980.265625 31.1826171875 l 1
 -2980.265625 12.6611328125 l 1
 -3051.37402344 12.6611328125 l 1
 -3122.48242188 12.6611328125 l 1
 -3122.48242188 -5.859375 l 1
 -3122.48242188 -24.373046875 l 1
 -3051.37402344 -24.373046875 l 1
 -2980.265625 -24.373046875 l 1
 -2980.265625 -79.935546875 l 1
 -2980.265625 -135.491210938 l 1
 -3069.15332031 -135.491210938 l 1
 -3158.04003906 -135.491210938 l 1
 -3158.04003906 -116.970703125 l 1
 -3158.04003906 -98.45703125 l 1
 -3086.93164062 -98.45703125 l 1
 -3015.81640625 -98.45703125 l 1
 -3015.81640625 -79.935546875 l 1
 -3015.81640625 -61.4150390625 l 1
 -3086.93164062 -61.4150390625 l 1
 -3158.04003906 -61.4150390625 l 1
 -3158.04003906 -5.859375 l 1
-2825.11523438 -42.89453125 m 1
 -2825.11523438 49.703125 l 1
 -2736.22851562 49.703125 l 1
 -2647.34082031 49.703125 l 1
 -2647.34082031 31.1826171875 l 1
 -2647.34082031 12.6611328125 l 1
 -2718.45605469 12.6611328125 l 1
 -2789.56445312 12.6611328125 l 1
 -2789.56445312 -5.859375 l 1
 -2789.56445312 -24.373046875 l 1
 -2718.45605469 -24.373046875 l 1
 -2647.34082031 -24.373046875 l 1
 -2647.34082031 -79.935546875 l 1
 -2647.34082031 -135.491210938 l 1
 -2736.22851562 -135.491210938 l 1
 -2825.11523438 -135.491210938 l 1
 -2825.11523438 -42.89453125 l 1
-2682.8984375 -79.935546875 m 1
 -2682.8984375 -61.4150390625 l 1
 -2736.22851562 -61.4150390625 l 1
 -2789.56445312 -61.4150390625 l 1
 -2789.56445312 -79.935546875 l 1
 -2789.56445312 -98.45703125 l 1
 -2736.22851562 -98.45703125 l 1
 -2682.8984375 -98.45703125 l 1
 -2682.8984375 -79.935546875 l 1
-2492.19726562 31.1826171875 m 1
 -2492.19726562 49.703125 l 1
 -2403.31054688 49.703125 l 1
 -2314.42382812 49.703125 l 1
 -2314.42382812 -42.89453125 l 1
 -2314.42382812 -135.491210938 l 1
 -2332.20214844 -135.491210938 l 1
 -2349.98144531 -135.491210938 l 1
 -2349.98144531 -61.4150390625 l 1
 -2349.98144531 12.6611328125 l 1
 -2421.08984375 12.6611328125 l 1
 -2492.19726562 12.6611328125 l 1
 -2492.19726562 31.1826171875 l 1
-2159.2734375 -42.89453125 m 1
 -2159.2734375 49.703125 l 1
 -2070.38574219 49.703125 l 1
 -1981.50585938 49.703125 l 1
 -1981.50585938 -42.89453125 l 1
 -1981.50585938 -135.491210938 l 1
 -2070.38574219 -135.491210938 l 1
 -2159.2734375 -135.491210938 l 1
 -2159.2734375 -42.89453125 l 1
-2017.05664062 -5.859375 m 1
 -2017.05664062 12.6611328125 l 1
 -2070.38574219 12.6611328125 l 1
 -2123.72265625 12.6611328125 l 1
 -2123.72265625 -5.859375 l 1
 -2123.72265625 -24.373046875 l 1
 -2070.38574219 -24.373046875 l 1
 -2017.05664062 -24.373046875 l 1
 -2017.05664062 -5.859375 l 1
-2017.05664062 -79.935546875 m 1
 -2017.05664062 -61.4150390625 l 1
 -2070.38574219 -61.4150390625 l 1
 -2123.72265625 -61.4150390625 l 1
 -2123.72265625 -79.935546875 l 1
 -2123.72265625 -98.45703125 l 1
 -2070.38574219 -98.45703125 l 1
 -2017.05664062 -98.45703125 l 1
 -2017.05664062 -79.935546875 l 1
-1826.35546875 -5.859375 m 1
 -1826.35546875 49.703125 l 1
 -1737.46777344 49.703125 l 1
 -1648.58105469 49.703125 l 1
 -1648.58105469 -42.89453125 l 1
 -1648.58105469 -135.491210938 l 1
 -1737.46777344 -135.491210938 l 1
 -1826.35546875 -135.491210938 l 1
 -1826.35546875 -116.970703125 l 1
 -1826.35546875 -98.45703125 l 1
 -1755.24707031 -98.45703125 l 1
 -1684.13867188 -98.45703125 l 1
 -1684.13867188 -79.935546875 l 1
 -1684.13867188 -61.4150390625 l 1
 -1755.24707031 -61.4150390625 l 1
 -1826.35546875 -61.4150390625 l 1
 -1826.35546875 -5.859375 l 1
-1684.13867188 -5.859375 m 1
 -1684.13867188 12.6611328125 l 1
 -1737.46777344 12.6611328125 l 1
 -1790.79785156 12.6611328125 l 1
 -1790.79785156 -5.859375 l 1
 -1790.79785156 -24.373046875 l 1
 -1737.46777344 -24.373046875 l 1
 -1684.13867188 -24.373046875 l 1
 -1684.13867188 -5.859375 l 1
-1477.2734375 -42.89453125 m 1
 -1477.2734375 49.703125 l 1
 -1388.38671875 49.703125 l 1
 -1299.49902344 49.703125 l 1
 -1299.49902344 -42.89453125 l 1
 -1299.49902344 -135.491210938 l 1
 -1388.38671875 -135.491210938 l 1
 -1477.2734375 -135.491210938 l 1
 -1477.2734375 -42.89453125 l 1
-1335.05664062 -42.89453125 m 1
 -1335.05664062 12.6611328125 l 1
 -1388.38671875 12.6611328125 l 1
 -1441.71582031 12.6611328125 l 1
 -1441.71582031 -42.89453125 l 1
 -1441.71582031 -98.45703125 l 1
 -1388.38671875 -98.45703125 l 1
 -1335.05664062 -98.45703125 l 1
 -1335.05664062 -42.89453125 l 1
-1157.28222656 31.1826171875 m 1
 -1157.28222656 49.703125 l 1
 -1121.72460938 49.703125 l 1
 -1086.17382812 49.703125 l 1
 -1086.17382812 -42.89453125 l 1
 -1086.17382812 -135.491210938 l 1
 -1103.94628906 -135.491210938 l 1
 -1121.72460938 -135.491210938 l 1
 -1121.72460938 -61.4150390625 l 1
 -1121.72460938 12.6611328125 l 1
 -1139.50390625 12.6611328125 l 1
 -1157.28222656 12.6611328125 l 1
 -1157.28222656 31.1826171875 l 1
-1050.6171875 31.1826171875 m 1
 -1050.6171875 49.703125 l 1
 -961.729492188 49.703125 l 1
 -872.842773438 49.703125 l 1
 -872.842773438 -5.859375 l 1
 -872.842773438 -61.4150390625 l 1
 -943.951171875 -61.4150390625 l 1
 -1015.05957031 -61.4150390625 l 1
 -1015.05957031 -79.935546875 l 1
 -1015.05957031 -98.45703125 l 1
 -943.951171875 -98.45703125 l 1
 -872.842773438 -98.45703125 l 1
 -872.842773438 -116.970703125 l 1
 -872.842773438 -135.491210938 l 1
 -961.729492188 -135.491210938 l 1
 -1050.6171875 -135.491210938 l 1
 -1050.6171875 -79.935546875 l 1
 -1050.6171875 -24.373046875 l 1
 -979.508789062 -24.373046875 l 1
 -908.400390625 -24.373046875 l 1
 -908.400390625 -5.859375 l 1
 -908.400390625 12.6611328125 l 1
 -979.508789062 12.6611328125 l 1
 -1050.6171875 12.6611328125 l 1
 -1050.6171875 31.1826171875 l 1
-837.291992188 31.1826171875 m 1
 -837.291992188 49.703125 l 1
 -748.404296875 49.703125 l 1
 -659.517578125 49.703125 l 1
 -659.517578125 -42.89453125 l 1
 -659.517578125 -135.491210938 l 1
 -748.404296875 -135.491210938 l 1
 -837.291992188 -135.491210938 l 1
 -837.291992188 -116.970703125 l 1
 -837.291992188 -98.45703125 l 1
 -766.176757812 -98.45703125 l 1
 -695.068359375 -98.45703125 l 1
 -695.068359375 -79.935546875 l 1
 -695.068359375 -61.4150390625 l 1
 -766.176757812 -61.4150390625 l 1
 -837.291992188 -61.4150390625 l 1
 -837.291992188 -42.89453125 l 1
 -837.291992188 -24.373046875 l 1
 -766.176757812 -24.373046875 l 1
 -695.068359375 -24.373046875 l 1
 -695.068359375 -5.859375 l 1
 -695.068359375 12.6611328125 l 1
 -766.176757812 12.6611328125 l 1
 -837.291992188 12.6611328125 l 1
 -837.291992188 31.1826171875 l 1
-623.959960938 -5.859375 m 1
 -623.959960938 49.703125 l 1
 -606.180664062 49.703125 l 1
 -588.409179688 49.703125 l 1
 -588.409179688 12.6611328125 l 1
 -588.409179688 -24.373046875 l 1
 -535.072265625 -24.373046875 l 1
 -481.743164062 -24.373046875 l 1
 -481.743164062 12.6611328125 l 1
 -481.743164062 49.703125 l 1
 -463.96484375 49.703125 l 1
 -446.185546875 49.703125 l 1
 -446.185546875 -42.89453125 l 1
 -446.185546875 -135.491210938 l 1
 -463.96484375 -135.491210938 l 1
 -481.743164062 -135.491210938 l 1
 -481.743164062 -98.45703125 l 1
 -481.743164062 -61.4150390625 l 1
 -552.8515625 -61.4150390625 l 1
 -623.959960938 -61.4150390625 l 1
 -623.959960938 -5.859375 l 1
-410.634765625 -5.859375 m 1
 -410.634765625 49.703125 l 1
 -321.748046875 49.703125 l 1
 -232.860351562 49.703125 l 1
 -232.860351562 31.1826171875 l 1
 -232.860351562 12.6611328125 l 1
 -303.96875 12.6611328125 l 1
 -375.077148438 12.6611328125 l 1
 -375.077148438 -5.859375 l 1
 -375.077148438 -24.373046875 l 1
 -303.96875 -24.373046875 l 1
 -232.860351562 -24.373046875 l 1
 -232.860351562 -79.935546875 l 1
 -232.860351562 -135.491210938 l 1
 -321.748046875 -135.491210938 l 1
 -410.634765625 -135.491210938 l 1
 -410.634765625 -116.970703125 l 1
 -410.634765625 -98.45703125 l 1
 -339.526367188 -98.45703125 l 1
 -268.411132812 -98.45703125 l 1
 -268.411132812 -79.935546875 l 1
 -268.411132812 -61.4150390625 l 1
 -339.526367188 -61.4150390625 l 1
 -410.634765625 -61.4150390625 l 1
 -410.634765625 -5.859375 l 1
-197.302734375 -42.89453125 m 1
 -197.302734375 49.703125 l 1
 -108.416015625 49.703125 l 1
 -19.5283203125 49.703125 l 1
 -19.5283203125 31.1826171875 l 1
 -19.5283203125 12.6611328125 l 1
 -90.6435546875 12.6611328125 l 1
 -161.751953125 12.6611328125 l 1
 -161.751953125 -5.859375 l 1
 -161.751953125 -24.373046875 l 1
 -90.6435546875 -24.373046875 l 1
 -19.5283203125 -24.373046875 l 1
 -19.5283203125 -79.935546875 l 1
 -19.5283203125 -135.491210938 l 1
 -108.416015625 -135.491210938 l 1
 -197.302734375 -135.491210938 l 1
 -197.302734375 -42.89453125 l 1
-55.0859375 -79.935546875 m 1
 -55.0859375 -61.4150390625 l 1
 -108.416015625 -61.4150390625 l 1
 -161.751953125 -61.4150390625 l 1
 -161.751953125 -79.935546875 l 1
 -161.751953125 -98.45703125 l 1
 -108.416015625 -98.45703125 l 1
 -55.0859375 -98.45703125 l 1
 -55.0859375 -79.935546875 l 1
16.021484375 31.1826171875 m 1
 16.021484375 49.703125 l 1
 104.909179688 49.703125 l 1
 193.795898438 49.703125 l 1
 193.795898438 -42.89453125 l 1
 193.795898438 -135.491210938 l 1
 176.017578125 -135.491210938 l 1
 158.23828125 -135.491210938 l 1
 158.23828125 -61.4150390625 l 1
 158.23828125 12.6611328125 l 1
 87.1298828125 12.6611328125 l 1
 16.021484375 12.6611328125 l 1
 16.021484375 31.1826171875 l 1
229.353515625 -42.89453125 m 1
 229.353515625 49.703125 l 1
 318.234375 49.703125 l 1
 407.12109375 49.703125 l 1
 407.12109375 -42.89453125 l 1
 407.12109375 -135.491210938 l 1
 318.234375 -135.491210938 l 1
 229.353515625 -135.491210938 l 1
 229.353515625 -42.89453125 l 1
371.5703125 -5.859375 m 1
 371.5703125 12.6611328125 l 1
 318.234375 12.6611328125 l 1
 264.904296875 12.6611328125 l 1
 264.904296875 -5.859375 l 1
 264.904296875 -24.373046875 l 1
 318.234375 -24.373046875 l 1
 371.5703125 -24.373046875 l 1
 371.5703125 -5.859375 l 1
371.5703125 -79.935546875 m 1
 371.5703125 -61.4150390625 l 1
 318.234375 -61.4150390625 l 1
 264.904296875 -61.4150390625 l 1
 264.904296875 -79.935546875 l 1
 264.904296875 -98.45703125 l 1
 318.234375 -98.45703125 l 1
 371.5703125 -98.45703125 l 1
 371.5703125 -79.935546875 l 1
442.678710938 -5.859375 m 1
 442.678710938 49.703125 l 1
 531.56640625 49.703125 l 1
 620.453125 49.703125 l 1
 620.453125 -42.89453125 l 1
 620.453125 -135.491210938 l 1
 531.56640625 -135.491210938 l 1
 442.678710938 -135.491210938 l 1
 442.678710938 -116.970703125 l 1
 442.678710938 -98.45703125 l 1
 513.787109375 -98.45703125 l 1
 584.895507812 -98.45703125 l 1
 584.895507812 -79.935546875 l 1
 584.895507812 -61.4150390625 l 1
 513.787109375 -61.4150390625 l 1
 442.678710938 -61.4150390625 l 1
 442.678710938 -5.859375 l 1
584.895507812 -5.859375 m 1
 584.895507812 12.6611328125 l 1
 531.56640625 12.6611328125 l 1
 478.236328125 12.6611328125 l 1
 478.236328125 -5.859375 l 1
 478.236328125 -24.373046875 l 1
 531.56640625 -24.373046875 l 1
 584.895507812 -24.373046875 l 1
 584.895507812 -5.859375 l 1
EndSplineSet
EndChar

StartChar: colon
Encoding: 58 58 21
Width: 116
Flags: HW
LayerCount: 2
Fore
SplineSet
0 441 m 1
 0 926 l 1
 24 926 l 1
 48 926 l 1
 48 441 l 1
 48 -44 l 1
 24 -44 l 1
 0 -44 l 1
 0 441 l 1
68 441 m 1
 68 926 l 1
 92 926 l 1
 116 926 l 1
 116 441 l 1
 116 -44 l 1
 92 -44 l 1
 68 -44 l 1
 68 441 l 1
EndSplineSet
Validated: 1
EndChar

StartChar: plus
Encoding: 43 43 22
Width: 257
Flags: HW
LayerCount: 2
Fore
SplineSet
0 441 m 1
 0 926 l 1
 21 926 l 1
 42 926 l 1
 42 441 l 1
 42 -44 l 1
 21 -44 l 1
 0 -44 l 1
 0 441 l 1
61 441 m 1
 61 926 l 1
 82 926 l 1
 103 926 l 1
 103 441 l 1
 103 -44 l 1
 82 -44 l 1
 61 -44 l 1
 61 441 l 1
EndSplineSet
Validated: 1
EndChar

StartChar: asterisk
Encoding: 42 42 23
Width: 202
Flags: HW
LayerCount: 2
Fore
SplineSet
46 441 m 1
 46 926 l 1
 70 926 l 1
 94 926 l 1
 94 441 l 1
 94 -44 l 1
 70 -44 l 1
 46 -44 l 1
 46 441 l 1
114 441 m 1
 114 926 l 1
 138 926 l 1
 162 926 l 1
 162 441 l 1
 162 -44 l 1
 138 -44 l 1
 114 -44 l 1
 114 441 l 1
EndSplineSet
Validated: 1
EndChar

StartChar: backslash
Encoding: 92 92 24
Width: 94
Flags: HW
LayerCount: 2
Fore
SplineSet
46 441 m 1
 46 926 l 1
 70 926 l 1
 94 926 l 1
 94 441 l 1
 94 -44 l 1
 70 -44 l 1
 46 -44 l 1
 46 441 l 1
EndSplineSet
Validated: 1
EndChar

StartChar: k
Encoding: 107 107 25
Width: 282
Flags: HW
LayerCount: 2
Fore
SplineSet
47 -59 m 1
 47 34 l 1
 136 34 l 1
 225 34 l 1
 225 -59 l 1
 225 -151 l 1
 136 -151 l 1
 47 -151 l 1
 47 -59 l 1
189 -59 m 1
 189 -3 l 1
 136 -3 l 1
 83 -3 l 1
 83 -59 l 1
 83 -114 l 1
 136 -114 l 1
 189 -114 l 1
 189 -59 l 1
EndSplineSet
Validated: 1
EndChar

StartChar: l
Encoding: 108 108 26
Width: 282
Flags: HW
LayerCount: 2
Fore
SplineSet
153 15 m 5
 153 34 l 5
 189 34 l 5
 225 34 l 5
 225 -59 l 5
 225 -151 l 5
 207 -151 l 5
 189 -151 l 5
 189 -77 l 5
 189 -3 l 5
 171 -3 l 5
 153 -3 l 5
 153 15 l 5
EndSplineSet
Validated: 1
EndChar

StartChar: m
Encoding: 109 109 27
Width: 282
Flags: HW
LayerCount: 2
Fore
SplineSet
47 15 m 5
 47 34 l 5
 136 34 l 5
 225 34 l 5
 225 -22 l 5
 225 -77 l 5
 153 -77 l 5
 82 -77 l 5
 82 -96 l 5
 82 -114 l 5
 153 -114 l 5
 225 -114 l 5
 225 -133 l 5
 225 -151 l 5
 136 -151 l 5
 47 -151 l 5
 47 -96 l 5
 47 -40 l 5
 118 -40 l 5
 189 -40 l 5
 189 -22 l 5
 189 -3 l 5
 118 -3 l 5
 47 -3 l 5
 47 15 l 5
EndSplineSet
Validated: 1
EndChar

StartChar: n
Encoding: 110 110 28
Width: 282
Flags: HW
LayerCount: 2
Fore
SplineSet
47 15 m 5
 47 34 l 5
 136 34 l 5
 225 34 l 5
 225 -59 l 5
 225 -151 l 5
 136 -151 l 5
 47 -151 l 5
 47 -133 l 5
 47 -114 l 5
 118 -114 l 5
 189 -114 l 5
 189 -96 l 5
 189 -77 l 5
 118 -77 l 5
 47 -77 l 5
 47 -59 l 5
 47 -40 l 5
 118 -40 l 5
 189 -40 l 5
 189 -22 l 5
 189 -3 l 5
 118 -3 l 5
 47 -3 l 5
 47 15 l 5
EndSplineSet
Validated: 1
EndChar

StartChar: o
Encoding: 111 111 29
Width: 282
Flags: HW
LayerCount: 2
Fore
SplineSet
47 -22 m 5
 47 34 l 5
 65 34 l 5
 82 34 l 5
 82 -3 l 5
 82 -40 l 5
 136 -40 l 5
 189 -40 l 5
 189 -3 l 5
 189 34 l 5
 207 34 l 5
 225 34 l 5
 225 -59 l 5
 225 -151 l 5
 207 -151 l 5
 189 -151 l 5
 189 -114 l 5
 189 -77 l 5
 118 -77 l 5
 47 -77 l 5
 47 -22 l 5
EndSplineSet
Validated: 1
EndChar

StartChar: p
Encoding: 112 112 30
Width: 282
Flags: HW
LayerCount: 2
Fore
SplineSet
47 -22 m 5
 47 34 l 5
 136 34 l 5
 225 34 l 5
 225 15 l 5
 225 -3 l 5
 153 -3 l 5
 82 -3 l 5
 82 -22 l 5
 82 -40 l 5
 153 -40 l 5
 225 -40 l 5
 225 -96 l 5
 225 -151 l 5
 136 -151 l 5
 47 -151 l 5
 47 -133 l 5
 47 -114 l 5
 118 -114 l 5
 189 -114 l 5
 189 -96 l 5
 189 -77 l 5
 118 -77 l 5
 47 -77 l 5
 47 -22 l 5
EndSplineSet
Validated: 1
EndChar

StartChar: q
Encoding: 113 113 31
Width: 282
Flags: HW
LayerCount: 2
Fore
SplineSet
47 -59 m 5
 47 34 l 5
 136 34 l 5
 225 34 l 5
 225 15 l 5
 225 -3 l 5
 153 -3 l 5
 82 -3 l 5
 82 -22 l 5
 82 -40 l 5
 153 -40 l 5
 225 -40 l 5
 225 -96 l 5
 225 -151 l 5
 136 -151 l 5
 47 -151 l 5
 47 -59 l 5
189 -96 m 5
 189 -77 l 5
 136 -77 l 5
 82 -77 l 5
 82 -96 l 5
 82 -114 l 5
 136 -114 l 5
 189 -114 l 5
 189 -96 l 5
EndSplineSet
Validated: 1
EndChar

StartChar: r
Encoding: 114 114 32
Width: 282
Flags: HW
LayerCount: 2
Fore
SplineSet
47 15 m 5
 47 34 l 5
 136 34 l 5
 225 34 l 5
 225 -59 l 5
 225 -151 l 5
 207 -151 l 5
 189 -151 l 5
 189 -77 l 5
 189 -3 l 5
 118 -3 l 5
 47 -3 l 5
 47 15 l 5
EndSplineSet
Validated: 1
EndChar

StartChar: s
Encoding: 115 115 33
Width: 282
Flags: HW
LayerCount: 2
Fore
SplineSet
47 -59 m 5
 47 34 l 5
 136 34 l 5
 225 34 l 5
 225 -59 l 5
 225 -151 l 5
 136 -151 l 5
 47 -151 l 5
 47 -59 l 5
189 -22 m 5
 189 -3 l 5
 136 -3 l 5
 82 -3 l 5
 82 -22 l 5
 82 -40 l 5
 136 -40 l 5
 189 -40 l 5
 189 -22 l 5
189 -96 m 5
 189 -77 l 5
 136 -77 l 5
 82 -77 l 5
 82 -96 l 5
 82 -114 l 5
 136 -114 l 5
 189 -114 l 5
 189 -96 l 5
EndSplineSet
Validated: 1
EndChar

StartChar: t
Encoding: 116 116 34
Width: 282
Flags: HW
LayerCount: 2
Fore
SplineSet
47 -22 m 5
 47 34 l 5
 136 34 l 5
 225 34 l 5
 225 -59 l 5
 225 -151 l 5
 136 -151 l 5
 47 -151 l 5
 47 -133 l 5
 47 -114 l 5
 118 -114 l 5
 189 -114 l 5
 189 -96 l 5
 189 -77 l 5
 118 -77 l 5
 47 -77 l 5
 47 -22 l 5
189 -22 m 5
 189 -3 l 5
 136 -3 l 5
 82 -3 l 5
 82 -22 l 5
 82 -40 l 5
 136 -40 l 5
 189 -40 l 5
 189 -22 l 5
EndSplineSet
Validated: 1
EndChar
